<svg width="204" height="160" viewBox="0 0 204 160" fill="none" xmlns="http://www.w3.org/2000/svg">
<path d="M78.2477 90.4148H65.4859V87.7429H70.232V70.2H65.4859V67.8093C67.2789 67.8093 68.5973 67.5574 69.441 67.0535C70.2965 66.5378 70.777 65.571 70.8824 64.1531H73.607V87.7429H78.2477V90.4148ZM95.7906 74.9988C95.7906 73.2175 95.6266 71.7703 95.2984 70.657C94.9703 69.532 94.5191 68.6648 93.9449 68.0554C93.4293 67.4929 92.9078 67.1062 92.3805 66.8953C91.8531 66.6843 91.273 66.5789 90.6402 66.5789C89.1988 66.5789 88.0504 67.0945 87.1949 68.1257C86.3395 69.157 85.9117 70.6511 85.9117 72.6082C85.9117 73.7097 86.0523 74.6179 86.3336 75.3328C86.6148 76.0476 87.0719 76.6628 87.7047 77.1785C88.15 77.5417 88.6539 77.7878 89.2164 77.9167C89.7789 78.0339 90.3824 78.0925 91.027 78.0925C91.777 78.0925 92.5855 77.9636 93.4527 77.7058C94.3199 77.4363 95.0758 77.0847 95.7203 76.6511C95.732 76.4753 95.7438 76.2468 95.7555 75.9656C95.7789 75.6726 95.7906 75.3503 95.7906 74.9988ZM82.3434 72.7488C82.3434 71.4011 82.5602 70.1707 82.9938 69.0574C83.4391 67.9441 84.0426 66.9832 84.8043 66.1746C85.5309 65.4011 86.4156 64.7976 87.4586 64.364C88.5133 63.9304 89.5797 63.7136 90.6578 63.7136C91.8648 63.7136 92.9547 63.9187 93.9273 64.3289C94.9117 64.7273 95.7613 65.3074 96.4762 66.0691C97.3785 67.03 98.0758 68.2898 98.568 69.8484C99.0719 71.407 99.3238 73.3757 99.3238 75.7546C99.3238 77.9226 99.0777 79.9792 98.5855 81.9246C98.1051 83.8582 97.3902 85.4636 96.441 86.741C95.4332 88.1003 94.2203 89.1375 92.8023 89.8523C91.3961 90.5671 89.6559 90.9246 87.5816 90.9246C87.1129 90.9246 86.6148 90.8953 86.0875 90.8367C85.5602 90.7898 85.068 90.696 84.6109 90.5554V87.198H84.7867C85.0797 87.3621 85.5367 87.5203 86.1578 87.6726C86.7789 87.825 87.4117 87.9011 88.0563 87.9011C90.3531 87.9011 92.1578 87.1453 93.4703 85.6335C94.7828 84.1218 95.527 81.9597 95.7027 79.1472C94.7652 79.78 93.8688 80.2429 93.0133 80.5359C92.1695 80.8289 91.2496 80.9753 90.2535 80.9753C89.2809 80.9753 88.3961 80.8699 87.5992 80.6589C86.8023 80.448 85.9996 80.0378 85.191 79.4285C84.2535 78.7136 83.5445 77.8113 83.0641 76.7214C82.5836 75.6199 82.3434 74.2957 82.3434 72.7488Z" fill="#46435C"/>
<path d="M147.054 80C147.054 115.719 117.674 145 81.0271 145C44.3804 145 15 115.719 15 80C15 44.2813 44.3804 15 81.0271 15C117.674 15 147.054 44.2813 147.054 80Z" stroke="#BAC1CF" stroke-opacity="0.2" stroke-width="30"/>
<path fill-rule="evenodd" clip-rule="evenodd" d="M114.389 152.5C154.459 135.421 173.225 89.0946 156.935 48.343L129.326 60.1107C139.262 85.9198 127.141 114.453 102.626 124.902L114.389 152.5Z" fill="#F9A63F"/>
<path fill-rule="evenodd" clip-rule="evenodd" d="M159.827 60.8576C151.773 28.7384 123.972 3.8682 89.2359 0.407715L87.5476 30.4038C105.571 32.6453 120.254 43.916 127.429 59.0306L159.827 60.8576Z" fill="#006FBA"/>
<path fill-rule="evenodd" clip-rule="evenodd" d="M155.516 125.233C174.046 91.0144 170.306 47.8894 143.641 17.0916L112.733 45.8033C124.86 60.901 127.707 80.7387 121.498 98.042L155.516 125.233Z" fill="#D60100"/>
<path d="M109.94 16.3923C109.606 16.3923 109.272 16.4325 108.938 16.5129C108.604 16.5933 108.277 16.6985 107.955 16.8284C107.658 16.9521 107.398 17.0819 107.176 17.218C106.959 17.3541 106.764 17.4809 106.591 17.5984H106.48V15.6409C106.882 15.4244 107.426 15.2296 108.113 15.0564C108.806 14.877 109.464 14.7874 110.089 14.7874C110.714 14.7874 111.258 14.8523 111.722 14.9822C112.192 15.1059 112.615 15.3007 112.993 15.5667C113.401 15.8635 113.707 16.2222 113.911 16.6428C114.121 17.0634 114.227 17.5551 114.227 18.1179C114.227 18.8787 113.976 19.5466 113.475 20.1218C112.974 20.697 112.374 21.0619 111.675 21.2166V21.3464C111.966 21.4021 112.275 21.498 112.603 21.634C112.937 21.7701 113.246 21.9711 113.531 22.2371C113.815 22.503 114.047 22.8463 114.227 23.2668C114.406 23.6812 114.496 24.1884 114.496 24.7883C114.496 25.413 114.387 25.9882 114.171 26.5139C113.961 27.0334 113.661 27.4942 113.271 27.8962C112.869 28.3168 112.383 28.6353 111.814 28.8518C111.245 29.0683 110.599 29.1765 109.875 29.1765C109.183 29.1765 108.496 29.093 107.816 28.926C107.136 28.759 106.563 28.558 106.1 28.323V26.3655H106.229C106.619 26.65 107.142 26.9221 107.797 27.1819C108.453 27.4417 109.109 27.5715 109.764 27.5715C110.141 27.5715 110.519 27.5128 110.896 27.3953C111.279 27.2716 111.598 27.0736 111.852 26.8015C112.099 26.5294 112.288 26.2294 112.417 25.9016C112.547 25.5738 112.612 25.1594 112.612 24.6584C112.612 24.1575 112.538 23.7462 112.39 23.4246C112.247 23.1029 112.046 22.8494 111.787 22.6638C111.527 22.4783 111.218 22.3515 110.859 22.2834C110.506 22.2092 110.123 22.1721 109.708 22.1721H108.92V20.6321H109.532C110.367 20.6321 111.044 20.4342 111.564 20.0383C112.09 19.6425 112.353 19.0673 112.353 18.3127C112.353 17.9664 112.285 17.6695 112.148 17.4221C112.012 17.1685 111.839 16.9675 111.629 16.8191C111.394 16.6583 111.134 16.547 110.85 16.4851C110.565 16.4233 110.262 16.3923 109.94 16.3923Z" fill="white"/>
<path d="M130.869 128.646H124.134V127.236H126.639V117.977H124.134V116.716C125.08 116.716 125.776 116.583 126.221 116.317C126.673 116.045 126.926 115.534 126.982 114.786H128.42V127.236H130.869V128.646Z" fill="white"/>
<path d="M149.83 75.4451H141.304V73.5061C141.916 72.9247 142.494 72.3681 143.039 71.8362C143.583 71.3043 144.115 70.7507 144.634 70.1755C145.686 69.019 146.403 68.0943 146.787 67.4016C147.17 66.7027 147.362 65.9822 147.362 65.24C147.362 64.8565 147.3 64.5194 147.176 64.2288C147.059 63.9381 146.895 63.6969 146.685 63.5051C146.468 63.3196 146.218 63.1804 145.933 63.0876C145.649 62.9949 145.336 62.9485 144.996 62.9485C144.668 62.9485 144.334 62.9918 143.994 63.0784C143.66 63.1588 143.339 63.2608 143.029 63.3845C142.77 63.4897 142.519 63.6165 142.278 63.7649C142.037 63.9133 141.842 64.0401 141.693 64.1453H141.591V62.1785C141.975 61.9867 142.507 61.8012 143.187 61.6218C143.874 61.4363 144.523 61.3435 145.135 61.3435C146.422 61.3435 147.43 61.6868 148.16 62.3733C148.89 63.0536 149.255 63.9783 149.255 65.1472C149.255 65.6853 149.19 66.1832 149.06 66.6409C148.936 67.0986 148.763 67.5222 148.54 67.9119C148.311 68.3139 148.036 68.7128 147.714 69.1086C147.393 69.5045 147.053 69.8941 146.694 70.2776C146.113 70.9084 145.463 71.564 144.746 72.2444C144.034 72.9247 143.465 73.4628 143.039 73.8586H149.83V75.4451Z" fill="white"/>
</svg>
