<svg width="12" height="12" viewBox="0 0 12 12" fill="none" xmlns="http://www.w3.org/2000/svg">
<path d="M6.27381 10.4326C5.95873 10.8602 5.46806 11.1231 4.93754 11.1492C4.40702 11.1756 3.8932 10.9618 3.53772 10.567L0.352174 7.03186C-0.15411 6.47037 -0.109137 5.60484 0.452353 5.09856C1.01438 4.59228 1.87937 4.63752 2.38566 5.19928L4.63943 7.70053C4.67282 7.7377 4.72129 7.75763 4.77111 7.7552C4.8212 7.75278 4.86698 7.72773 4.89688 7.68788L9.52937 1.40484C9.97776 0.796227 10.8347 0.666694 11.4436 1.11535C12.0519 1.564 12.1812 2.42091 11.7325 3.02926L6.27381 10.4326Z" fill="#006FBA"/>
</svg>
