<svg width="110" height="54" viewBox="0 0 110 54" fill="none" xmlns="http://www.w3.org/2000/svg">
<path d="M109.615 40.8821V53.6179H71.2368V51.1981H73.0338V50.434C74.8308 50.434 75.7292 50.0519 75.7292 48.3962V45.9764C75.7292 44.3208 74.9591 43.9387 73.0338 43.9387V43.3019V40.8821H109.615ZM106.021 49.1604V48.3962C106.021 46.8679 105.379 46.3585 103.454 46.3585H103.197V43.3019H101.4V51.1981H103.197C105.251 51.1981 106.021 50.9434 106.021 49.1604ZM90.6184 44.7028V43.3019H86.2543V44.7028H87.5379V51.1981H89.3348V44.7028H90.6184Z" fill="#006FBA"/>
<path d="M109.487 16.6841V35.1511H105.893V23.5614H105.764L103.839 35.1511H101.015L99.2182 23.5614H99.0898V35.1511H95.4959V16.6841H100.117L102.427 29.6746L104.737 16.6841H109.487Z" fill="#006FBA"/>
<path d="M93.0572 19.9954V31.8397C93.0572 33.1133 92.9288 35.1511 90.3617 35.1511H87.4096C84.8425 35.1511 84.7141 33.1133 84.7141 31.8397V19.9954C84.7141 18.7218 84.8425 16.6841 87.4096 16.6841H90.3617C92.9288 16.6841 93.0572 18.7218 93.0572 19.9954ZM89.4632 32.0945V19.486C89.4632 19.2313 89.2065 18.8492 88.9498 18.8492C88.6931 18.8492 88.4364 18.9765 88.4364 19.486V32.0945C88.4364 32.6039 88.8215 32.7313 88.9498 32.7313C89.2065 32.7313 89.4632 32.4765 89.4632 32.0945Z" fill="#006FBA"/>
<path d="M82.4037 19.9954V25.5992C82.4037 26.8728 82.2754 28.9105 79.7083 28.9105H77.6546V35.1511H74.0607V16.6841H79.7083C82.2754 16.6841 82.4037 18.7218 82.4037 19.9954ZM78.8098 25.8539V19.868C78.8098 19.2313 78.5531 18.9765 78.168 18.9765H77.6546V26.8728H78.168C78.5531 26.8728 78.8098 26.4907 78.8098 25.8539Z" fill="#006FBA"/>
<path d="M73.0339 40.8821V43.3019H71.2369V43.9387C69.3116 43.9387 68.5415 44.3208 68.5415 45.9764V48.3962C68.5415 50.0519 69.3116 50.434 71.2369 50.434V51.1981V53.6179H54.1657V51.1981H57.7596V49.7972H55.9627V47.7594H57.5029V46.4859H55.9627V44.7028H57.6313V43.3019V40.8821H73.0339Z" fill="#006FBA"/>
<path d="M71.7502 16.6841V35.1511H68.1563V18.9765H67.0011V35.1511H63.4072V16.6841H71.7502Z" fill="#006FBA"/>
<path d="M61.0968 28.1463V31.8397C61.0968 33.1132 60.9685 35.151 58.4014 35.151H55.4492C52.8821 35.151 52.7538 33.1132 52.7538 31.8397V28.6557H56.3477V32.0944C56.3477 32.6038 56.7328 32.7312 56.8611 32.7312C57.1178 32.7312 57.3746 32.4765 57.3746 32.0944V27.7642C57.3746 27.2548 57.2462 26.618 55.9626 26.618H54.5508V24.5802H56.091C57.1178 24.5802 57.5029 24.3255 57.5029 23.1793V19.4859C57.5029 19.2312 57.2462 18.8491 56.9895 18.8491C56.7328 18.8491 56.4761 18.9765 56.4761 19.4859V22.5425H52.8821V19.868C52.8821 18.5944 53.0105 16.5566 55.5776 16.5566H58.5297C61.0968 16.5566 61.2252 18.5944 61.2252 19.868V22.9246C61.2252 24.9623 59.8133 25.4717 58.7864 25.4717V25.5991C60.9685 25.5991 61.0968 27.5095 61.0968 28.1463Z" fill="#006FBA"/>
<path d="M57.6312 40.8821V43.3019H54.1656V51.1981V53.6179H34.7841V40.8821H57.6312ZM42.9988 51.1981V43.3019H41.0734V46.3585H40.175V43.3019H38.2496V51.1981H40.175V47.7594H41.0734V51.1981H42.9988Z" fill="#006FBA"/>
<path d="M49.2882 16.6841L51.2135 35.1511H47.7479L47.3629 30.1841H45.6943L45.3092 35.1511H41.8436L43.6406 16.6841H49.2882ZM47.2345 28.1463L46.5928 18.9765H46.336L45.6943 28.1463H47.2345Z" fill="#006FBA"/>
<path d="M41.7152 16.6841V18.9765H38.378V35.1511H34.7841V16.6841H41.7152Z" fill="#006FBA"/>
<path d="M32.4737 35.2783V47.8867C29.0081 51.4528 24.259 53.7452 18.8681 53.7452C8.59974 53.7452 0.256683 45.4669 0.256683 35.2783C0.256683 25.0896 8.59974 16.8113 18.8681 16.8113V17.3207V30.6934C16.1727 30.6934 13.4772 31.7122 11.4235 33.75C10.9101 34.2594 10.5251 34.7688 10.14 35.2783C7.5729 39.2264 7.95797 44.8301 11.5519 48.3962C13.6056 50.4339 16.301 51.4528 18.9965 51.4528C21.6919 51.4528 24.259 50.4339 26.3127 48.3962C28.3664 46.3584 28.3664 43.0471 26.3127 41.0094C24.259 38.9717 20.9218 38.9717 18.8681 41.0094V35.2783H25.6709H27.5962H32.4737Z" fill="#006FBA"/>
<path d="M30.035 9.93397C31.1902 14.9009 31.1902 17.9576 30.6768 21.3962C29.7783 27.6368 26.9545 32.4764 25.6709 34.0047C24.7724 32.8585 23.4889 30.6934 22.5904 28.6557C22.5904 28.6557 20.9218 24.7075 20.5367 20.8868C20.4084 19.6132 20.28 18.467 20.28 17.1934C20.28 14.5189 20.6651 11.717 21.5636 8.78774C22.7188 4.83963 25.0292 1.27359 25.6709 0.38208C26.056 1.01887 28.8798 4.96698 30.035 9.93397ZM29.7783 18.3396C29.7783 16.4292 29.6499 13.2453 28.7514 9.93397C27.853 6.62265 26.056 3.43868 25.7993 2.92925C25.5426 3.31133 24.1307 5.98585 22.8471 9.93397C22.4621 11.0802 21.9486 13.7547 21.8203 16.3019C21.6919 19.3585 22.077 22.5425 22.3337 23.3066C22.3337 22.2877 22.3337 18.8491 22.9755 16.0472C23.6172 13.2453 24.9008 9.93396 25.7993 8.27831C26.8261 10.0613 28.238 13.8821 28.7514 16.0472C29.2649 18.3396 29.5216 21.2689 29.3932 23.3066C29.5216 22.2877 29.6499 20.25 29.7783 18.3396ZM25.6709 32.8585C26.3127 31.8396 27.2112 29.4198 27.2112 26.4906C27.0828 23.434 26.056 21.2689 25.6709 20.7594C25.2859 21.2689 24.1307 23.816 24.1307 26.8726C24.259 29.8019 25.1575 31.8396 25.6709 32.8585Z" fill="#006FBA"/>
<path d="M103.711 47.7593H103.326V49.797H103.711C104.096 49.797 104.224 49.6697 104.224 49.2876V48.3961C104.224 47.8866 104.096 47.7593 103.711 47.7593Z" fill="#006FBA"/>
<path d="M73.9323 45.9765V48.5236C73.9323 49.0331 73.804 49.1604 73.4189 49.1604H73.1622V45.467H73.4189C73.804 45.467 73.9323 45.5944 73.9323 45.9765Z" fill="white"/>
<path d="M71.2369 45.467V49.1603H70.9802C70.5951 49.1603 70.4668 49.033 70.4668 48.5236V45.9764C70.4668 45.467 70.5951 45.3396 70.9802 45.3396H71.2369V45.467Z" fill="white"/>
<path d="M73.9323 45.9765V48.5236C73.9323 49.0331 73.804 49.1604 73.4189 49.1604H73.1622V45.467H73.4189C73.804 45.467 73.9323 45.5944 73.9323 45.9765Z" fill="#006FBA"/>
<path d="M71.2369 45.467V49.1603H70.9802C70.5951 49.1603 70.4668 49.033 70.4668 48.5236V45.9764C70.4668 45.467 70.5951 45.3396 70.9802 45.3396H71.2369V45.467Z" fill="#006FBA"/>
</svg>
